Coordinates
version=1
nRows=7
nColumns=46
inDegrees=yes

Units are S.I. units (second, meters, Newtons, ...)
Angles are in degrees.

endheader
time	pelvis_tilt	pelvis_list	pelvis_rotation	pelvis_tx	pelvis_ty	pelvis_tz	bb_angle	bb_tx	bb_ty	bb_tz	hip_flexion_r	hip_adduction_r	hip_rotation_r	knee_angle_r	knee_angle_r_beta	ankle_angle_r	subtalar_angle_r	mtp_angle_r	crank_angle_r	hip_flexion_l	hip_adduction_l	hip_rotation_l	knee_angle_l	knee_angle_l_beta	ankle_angle_l	subtalar_angle_l	mtp_angle_l	crank_angle_l	lumbar_extension	lumbar_bending	lumbar_rotation	arm_flex_r	arm_add_r	arm_rot_r	elbow_flex_r	pro_sup_r	wrist_flex_r	wrist_dev_r	arm_flex_l	arm_add_l	arm_rot_l	elbow_flex_l	pro_sup_l	wrist_flex_l	wrist_dev_l
      0.00000000	    -38.57427592	     35.73318879	      2.29437811	      0.10860667	      1.02357983	     -0.21624614	      0.00000000	      0.50000000	      0.00000000	      0.25000000	    119.97036644	     11.05751168	     39.81986509	    104.14766130	      1.81771960	     29.58777971	     -4.64072896	      0.00000000	      0.00000000	     78.46190299	     -1.77155767	    -39.81938880	     77.18775775	      1.34718052	     -5.10660828	      0.99735138	      0.00000000	      0.00000000	    -32.00227144	    -31.16784908	    -13.76287377	     88.40064116	    -34.69450417	     54.36176379	     72.02334835	     40.55128080	      0.00000000	      0.00000000	     89.13465259	    -27.84113810	     57.24779273	     58.10715168	     39.06157233	      0.00000000	      0.00000000
      0.00500000	    -38.74166121	     35.77681185	      2.38116708	      0.10851114	      1.02351073	     -0.21646578	      0.00000000	      0.50000000	      0.00000000	      0.25000000	    119.97008918	     10.94204666	     39.82331623	    103.80776005	      1.81178720	     29.60148992	     -4.62944719	      0.00000000	      0.00000000	     78.69770673	     -1.81177391	    -39.81598193	     77.43770626	      1.35154294	     -5.09936827	      1.00846337	      0.00000000	      0.00000000	    -31.91105325	    -31.19489316	    -13.82884249	     88.42904516	    -34.71989287	     54.34510107	     72.02744370	     40.55450017	      0.00000000	      0.00000000	     89.14518527	    -27.84762661	     57.24988614	     58.12376121	     39.06585434	      0.00000000	      0.00000000
      0.01000000	    -38.91131536	     35.84989550	      2.48298401	      0.10833382	      1.02337831	     -0.21668963	      0.00000000	      0.50000000	      0.00000000	      0.25000000	    119.96993576	     10.82728367	     39.81910931	    103.44066326	      1.80538015	     29.61516221	     -4.68711718	      0.00000000	      0.00000000	     78.93905528	     -1.81756866	    -39.81298916	     77.68333802	      1.35583002	     -5.07628765	      1.01202666	      0.00000000	      0.00000000	    -31.80976320	    -31.22947011	    -13.85205995	     88.45273682	    -34.73758011	     54.33132841	     72.03999598	     40.55884781	      0.00000000	      0.00000000	     89.15101407	    -27.87137686	     57.24769197	     58.14148940	     39.06990805	      0.00000000	      0.00000000
      0.01500000	    -39.12593187	     35.94368465	      2.45478257	      0.10815016	      1.02307558	     -0.21657370	      0.00000000	      0.50000000	      0.00000000	      0.25000000	    119.96989115	     10.92162640	     39.82713714	    103.06709754	      1.79886020	     29.60944626	     -4.81474463	      0.00000000	      0.00000000	     79.25757866	     -1.81083523	    -39.78952035	     77.85519711	      1.35882953	     -4.97518899	      0.90671757	      0.00000000	      0.00000000	    -31.55467370	    -31.28758832	    -13.70637515	     88.48200653	    -34.73651110	     54.31937604	     72.10088063	     40.57868660	      0.00000000	      0.00000000	     89.15208611	    -28.00159267	     57.27183047	     58.20611324	     39.08826424	      0.00000000	      0.00000000
      0.02000000	    -39.32223250	     35.89050991	      2.63527295	      0.10778759	      1.02315935	     -0.21728466	      0.00000000	      0.50000000	      0.00000000	      0.25000000	    119.96972634	     10.75512208	     39.83217679	    102.74362261	      1.79321450	     29.60202444	     -4.86431230	      0.00000000	      0.00000000	     79.49516331	     -1.97541251	    -39.78825739	     78.22137733	      1.36522058	     -4.87823649	      0.84336551	      0.00000000	      0.00000000	    -31.45167332	    -31.25506763	    -13.75475367	     88.46899677	    -34.75703506	     54.31557607	     72.13538167	     40.58833427	      0.00000000	      0.00000000	     89.15349019	    -28.01852067	     57.28019441	     58.23783325	     39.09580509	      0.00000000	      0.00000000
      0.02500000	    -39.56772257	     35.87548279	      2.70271751	      0.10749435	      1.02283300	     -0.21732337	      0.00000000	      0.50000000	      0.00000000	      0.25000000	    119.96970805	     10.76551152	     39.83504288	    102.39302708	      1.78709545	     29.60259558	     -4.94010168	      0.00000000	      0.00000000	     79.80708245	     -2.10776680	    -39.77001419	     78.51568019	      1.37035713	     -4.70046425	      0.67194163	      0.00000000	      0.00000000	    -31.22461734	    -31.25825054	    -13.67512828	     88.44940948	    -34.78971687	     54.31829640	     72.20230106	     40.60760312	      0.00000000	      0.00000000	     89.16566242	    -28.12412882	     57.28127530	     58.29009905	     39.10809586	      0.00000000	      0.00000000
      0.03000000	    -39.75058893	     35.88650108	      2.79926585	      0.10725381	      1.02262198	     -0.21758464	      0.00000000	      0.50000000	      0.00000000	      0.25000000	    119.96939352	     10.67913356	     39.83710459	    102.06553051	      1.78137956	     29.59944629	     -4.98320367	      0.00000000	      0.00000000	     80.05579381	     -2.17307403	    -39.76311602	     78.79843909	      1.37529221	     -4.64146440	      0.61347449	      0.00000000	      0.00000000	    -31.06709042	    -31.24760104	    -13.65661481	     88.45710335	    -34.82161246	     54.30986525	     72.24462483	     40.61913817	      0.00000000	      0.00000000	     89.16027517	    -28.18145349	     57.28655917	     58.33109893	     39.11762572	      0.00000000	      0.00000000
